<?xml version="1.0" encoding="UTF-8" standalone="no"?>
<svg
   viewBox="0 0 261.76 226.69"
   version="1.1"
   id="svg2"
   sodipodi:docname="logo.svg"
   inkscape:version="1.3.2 (091e20e, 2023-11-25, custom)"
   xmlns:inkscape="http://www.inkscape.org/namespaces/inkscape"
   xmlns:sodipodi="http://sodipodi.sourceforge.net/DTD/sodipodi-0.dtd"
   xmlns="http://www.w3.org/2000/svg"
   xmlns:svg="http://www.w3.org/2000/svg">
  <defs
     id="defs2" />
  <sodipodi:namedview
     id="namedview2"
     pagecolor="#505050"
     bordercolor="#ffffff"
     borderopacity="1"
     inkscape:showpageshadow="0"
     inkscape:pageopacity="0"
     inkscape:pagecheckerboard="1"
     inkscape:deskcolor="#505050"
     inkscape:zoom="3.4011204"
     inkscape:cx="130.98625"
     inkscape:cy="113.345"
     inkscape:window-width="1920"
     inkscape:window-height="1009"
     inkscape:window-x="1912"
     inkscape:window-y="-8"
     inkscape:window-maximized="1"
     inkscape:current-layer="svg2" />
  <ellipse
     style="fill:#b01e23;fill-opacity:1;stroke:#b01e23;stroke-width:1.04954;stroke-opacity:1"
     id="path11"
     cx="131.13324"
     cy="113.63903"
     rx="130.22643"
     ry="112.43816" />
  <path
     style="fill:#fcfadb;fill-opacity:1;stroke:#fcfadb;stroke-opacity:1"
     id="path7"
     d="m 81.861725,62.388684 c -1.23594,0.233389 -2.50215,0.227999 -3.74706,0.395474 -1.18486,0.159395 -2.35675,0.409176 -3.543207,0.556162 -3.985179,0.493707 -6.90149,0.637708 -10.96378,0.922219 -6.015045,0.452009 -12.04922,0.446026 -18.073243,0.659419 -1.880957,0.06663 -3.759596,0.18812 -5.639939,0.270289 -4.797156,0.209629 -5.891834,0.228633 -10.594814,0.373185 -2.653948,0.124303 -5.313838,0.07019 -7.968146,0.184279 -1.240244,0.05331 -3.447714,-0.01157 -4.577869,0.92263 -1.443652,1.193344 -1.029946,2.518526 -1.049754,4.160451 0.281201,1.146108 0.529002,2.300931 0.843604,3.438324 0.412557,1.491538 0.903239,2.960435 1.33716,4.445898 1.182357,4.047623 1.977255,6.800109 2.881139,10.961482 1.050402,4.835926 1.174894,6.273223 1.869724,11.082594 0.522778,3.96059 0.788428,7.95604 0.748144,11.95127 -0.0067,0.66588 -0.08704,2.93774 -0.221493,3.78962 -0.03734,0.23657 -0.142803,0.45722 -0.214205,0.68583 4.327363,2.35792 8.414084,5.22466 12.982089,7.07376 0.524213,0.2122 0.299853,-1.09061 0.455355,-1.63435 0.177222,-0.61968 0.334318,-1.24595 0.542797,-1.85582 0.533876,-1.56179 1.302205,-3.38024 2.066822,-4.82531 0.466451,-0.88155 1.011969,-1.71895 1.517953,-2.57842 2.185245,-3.34745 4.887023,-6.3621 8.223052,-8.60199 1.979777,-1.32927 2.63462,-1.48988 4.792594,-2.40753 0.87797,-0.24631 1.73823,-0.56789 2.633911,-0.73894 4.582561,-0.87515 9.448231,-0.11563 13.823599,1.35923 1.184812,0.39938 2.321269,0.92997 3.481903,1.39495 1.070587,0.5624 4.262294,2.28622 3.211764,1.6872 -12.940941,-7.378961 -8.366207,-5.06715 -5.272559,-2.35161 1.453812,1.27612 2.652778,2.61563 3.815179,4.15856 0.58593,0.77774 1.1048,1.60381 1.6572,2.40572 1.72807,2.78517 3.04845,5.78966 4.09985,8.88898 0.46341,1.36602 0.9232,2.73586 1.28566,4.13207 0.90441,3.4839 1.19928,5.99312 1.75377,9.56295 0.20004,1.8508 0.49352,3.69388 0.60014,5.5524 0.36266,6.32154 -0.27038,13.20626 -2.6999,19.11079 -0.42932,1.04339 -1.01341,2.01615 -1.52012,3.02422 -1.40544,2.16855 -3.12662,4.00532 -5.50483,5.10033 -1.337405,0.6158 -3.095369,1.02171 -4.544653,1.17896 -0.864561,0.0938 -1.737866,0.0699 -2.6068,0.1048 -4.012945,-0.0775 -7.952818,-1.0238 -11.633604,-2.60958 -1.014096,-0.4369 -3.918868,-2.02645 -2.983245,-1.44004 2.380755,1.49217 4.885988,2.77586 7.328983,4.16379 -4.304,-2.71134 -8.290406,-5.9558 -11.701441,-9.73966 -2.201167,-2.44175 -2.819603,-3.46506 -4.731634,-6.13641 -1.942578,-2.93223 -3.639529,-6.02162 -5.083644,-9.22824 -0.38534,-0.85563 -0.723768,-1.73163 -1.085652,-2.59745 0,0 -11.437714,-5.22541 -11.437714,-5.22541 v 0 c 2.070927,4.23034 4.252315,8.41158 6.826262,12.36347 1.734462,2.53235 2.609048,3.96226 4.619599,6.28838 3.297857,3.81548 7.186689,7.11939 11.347598,9.94981 3.967765,2.28652 11.069352,6.96259 16.601952,9.18087 3.916531,1.57032 8.087536,2.45806 12.310313,2.48816 2.16456,-0.13655 3.37531,-0.0824 5.45889,-0.7191 2.51034,-0.76715 4.569,-2.30573 6.00427,-4.51086 0.55223,-0.84843 0.93017,-1.79831 1.39526,-2.69747 0.36443,-1.14161 0.79582,-2.26396 1.09328,-3.42482 2.11737,-8.26307 1.92456,-16.92271 1.68165,-25.37356 -0.39651,-3.8439 -0.53242,-5.60318 -1.09425,-9.37665 -0.19739,-1.32582 -0.36289,-2.66028 -0.66955,-3.96517 -0.26018,-1.10709 -0.64615,-2.18192 -1.02692,-3.25353 -0.96539,-2.71691 -1.2915,-3.19308 -2.54881,-5.73699 -1.28173,-2.03996 -1.76439,-2.98238 -3.34846,-4.80909 -1.00518,-1.15913 -3.29173,-3.40944 -4.57794,-4.21424 -10.685973,-6.686391 -9.405595,-5.96489 -16.385638,-9.268931 -1.169738,-0.41839 -2.319255,-0.89832 -3.509213,-1.25516 -4.533299,-1.359419 -10.162119,-2.145695 -14.861173,-1.312305 -0.985542,0.174789 -1.927321,0.541116 -2.890982,0.811674 -0.808425,0.405137 -1.644875,0.758611 -2.425274,1.215411 -4.38973,2.56948 -7.828178,6.460511 -10.714889,10.579891 -1.537538,2.33008 -3.004069,4.70301 -4.527467,7.04134 -0.336935,0.51718 -0.652773,1.05219 -1.045609,1.52829 -0.160558,0.19459 -0.808344,0.32441 -0.598071,0.4638 4.008415,2.65721 8.271041,4.90943 12.406562,7.36414 -0.180109,-0.29332 -0.422432,-0.55657 -0.540328,-0.87995 -0.158148,-0.4338 -1.020657,-4.41804 -1.024016,-4.43404 -0.894744,-4.26129 -1.684554,-8.54509 -2.413227,-12.83757 -1.026985,-5.582511 -2.050487,-11.162152 -2.986394,-16.760797 -0.572569,-3.425138 -0.975168,-5.472154 -1.291332,-8.837196 -0.08745,-0.930699 -0.101697,-1.866828 -0.152546,-2.800242 0.08216,-0.90387 -0.02501,-1.978884 0.655615,-2.730105 0.796903,-0.879557 2.106961,-1.075615 3.170025,-1.298822 2.336066,-0.490494 4.394133,-0.684873 6.788518,-0.981832 4.817977,-0.418092 5.044384,-0.477592 10.064504,-0.738383 1.889425,-0.09815 3.781267,-0.14535 5.670691,-0.243525 5.898121,-0.306468 11.786914,-0.809832 17.694454,-0.929817 4.69166,-0.05481 7.66651,-0.172908 12.31536,0.08899 3.33165,0.187688 6.64181,0.67092 9.95981,1.006912 z" />
  <path
     style="fill:#fcfadb;fill-opacity:1;stroke:#fcfadb;stroke-opacity:1"
     id="path8"
     d="m 125.44554,60.303827 c -2.83578,0.94529 -5.06916,3.128478 -7.19944,5.127785 -1.35014,1.834094 -2.92531,3.840043 -3.97341,5.863524 -0.72132,1.392582 -1.28737,2.8611 -1.87527,4.315043 -1.28597,3.18031 -2.45414,6.518929 -3.43337,9.805545 -0.50333,1.689342 -0.92488,3.401977 -1.38732,5.102965 -2.42499,9.580951 -3.06469,19.449901 -3.65551,29.274371 -0.0601,1.33056 -0.17138,2.65978 -0.18038,3.99166 -0.009,1.3113 0.0627,2.62218 0.12684,3.93194 0.12756,2.60666 0.28444,4.62524 0.675,7.1979 0.44084,2.90376 0.71134,3.7608 1.39613,6.60286 1.07058,4.02036 2.53061,7.93127 4.5008,11.59977 1.05646,1.96711 1.5577,2.6638 2.74662,4.50125 1.64654,2.31708 3.57075,4.64435 6.05443,6.11541 12.44917,7.37354 8.68757,5.72284 15.0895,8.36948 1.94974,0.5355 2.40535,0.76937 4.49622,0.87241 0.87623,0.0432 1.7648,0.0879 2.63143,-0.0484 1.62999,-0.25648 4.52472,-1.37627 5.96347,-2.07172 1.0084,-0.48743 1.95527,-1.09304 2.93291,-1.63956 2.29808,-1.76922 3.17291,-2.22478 5.00848,-4.51471 0.74855,-0.93386 1.39519,-1.94797 2.01474,-2.97197 1.30022,-2.14902 2.41459,-4.54516 3.35935,-6.8663 0.49987,-1.22809 0.926,-2.4849 1.389,-3.72735 1.27924,-3.84629 2.18069,-7.80068 2.74691,-11.81274 0.19829,-1.40501 0.38867,-2.81344 0.48483,-4.22911 0.14675,-2.16051 0.15443,-7.70193 0.17021,-9.8438 -0.052,-1.6286 -0.0204,-3.26203 -0.15612,-4.88579 -0.1478,-1.76815 -0.43053,-3.52287 -0.69347,-5.27759 -0.72907,-4.86552 -1.66591,-9.71754 -3.03533,-14.4469 -0.38994,-1.346678 -0.85789,-2.669528 -1.28683,-4.004291 -1.94363,-5.859946 -5.00968,-11.206523 -8.29629,-16.395109 -1.92772,-3.012961 -3.92752,-5.979564 -5.84591,-8.99838 -0.21691,-0.363509 -0.43381,-0.727019 -0.65072,-1.090528 0,0 -12.78599,-5.621277 -12.78599,-5.621277 v 0 c 0.26395,0.386188 0.5279,0.772376 0.79184,1.158563 2.0995,3.19047 4.39479,6.245579 6.60642,9.358314 3.76286,5.283547 7.33231,10.742038 9.83262,16.756456 1.50236,3.812313 1.90225,4.555335 3.03737,8.587552 0.90913,3.22944 1.66169,6.64978 2.10776,9.9756 0.47704,3.55665 0.52491,6.35864 0.68355,9.92429 -0.0447,1.61829 -0.0226,3.23981 -0.13408,4.85489 -0.10631,1.54107 -0.33054,3.07184 -0.51856,4.60508 -0.65163,5.31389 -1.60097,10.594 -3.30996,15.68196 -0.47037,1.20673 -0.89312,2.43313 -1.41111,3.6202 -1.85539,4.25196 -4.29171,8.46158 -7.83284,11.54051 -0.8016,0.69697 -1.70506,1.26733 -2.55759,1.90099 -2.44515,1.26086 -3.21923,1.8572 -5.93651,2.46803 -3.51464,0.79008 -7.00705,0.22092 -10.28528,-1.16067 -5.03137,-2.37382 -3.21999,-1.58651 7.78378,4.79021 0.60443,0.35027 -1.20464,-0.71068 -1.77602,-1.11261 -1.85876,-1.3075 -3.43659,-2.93771 -4.84611,-4.71182 -1.35848,-1.84066 -1.91299,-2.50517 -3.11283,-4.4972 -2.1569,-3.581 -3.7316,-7.47137 -4.92425,-11.47058 -0.69363,-2.60716 -1.08478,-3.90555 -1.6064,-6.56546 -0.98869,-5.04166 -1.32382,-10.1699 -1.4287,-15.2987 6.2e-4,-1.50858 -0.0327,-3.01756 0.002,-4.52575 0.19141,-8.34286 1.12301,-16.68683 2.94096,-24.833124 0.45908,-1.678171 0.85634,-3.374486 1.37723,-5.034514 1.82797,-5.82567 4.35776,-11.574038 8.59531,-16.074428 0.7314,-0.776766 1.58393,-1.429835 2.37589,-2.144753 2.41375,-1.676028 5.15683,-3.713818 8.27329,-3.257905 z" />
  <path
     style="fill:#fcfadb;fill-opacity:1;stroke:#fcfadb;stroke-opacity:1"
     id="path9"
     d="m 192.4444,55.414787 c -0.0294,0.667549 -0.0575,1.4439 -0.12645,2.084708 -0.20415,1.896981 -0.45155,3.206773 -0.83267,5.146894 -0.61922,3.152187 -1.19419,5.67227 -1.89324,8.854598 -0.42796,1.866717 -0.90882,3.722092 -1.28389,5.600151 -2.22603,11.145999 -0.1517,2.948083 -2.81235,14.304732 -0.94775,4.045346 -2.28806,9.03631 -3.49401,13.04769 -0.52518,1.74691 -1.11289,3.47441 -1.66933,5.21162 -1.17645,3.44318 -2.44032,6.85732 -3.8824,10.1987 -0.59396,1.37624 -1.27322,2.70875 -1.85171,4.09064 -1.15643,5.60889 -0.5822,1.71432 12.73728,8.75942 0.45966,0.24313 0.99143,-0.3149 1.49246,-0.45408 3.23409,-0.89841 6.50674,-1.47318 9.81083,-2.04919 7.37492,-1.12062 14.84575,-1.50233 22.29921,-1.45878 2.4388,0.097 1.29116,0.0339 3.44353,0.17773 0,0 -11.28181,-8.17971 -11.28181,-8.17971 v 0 c -1.78137,0.18397 -0.82568,0.0819 -2.86672,0.3095 -2.56772,0.30526 -5.112,0.72352 -7.67029,1.0992 -3.22853,0.4741 -4.92657,0.71659 -8.26041,1.07181 -1.61909,0.17252 -3.24185,0.30853 -4.86278,0.46279 -2.0806,0.14933 -6.47642,0.4976 -8.69068,0.54075 -1.00899,0.0197 -2.02474,0.0533 -3.02682,-0.0662 -0.58738,-0.07 -2.1879,-0.83707 -1.7034,-0.49768 12.8691,9.01468 14.2925,10.99251 11.23302,6.96696 -0.032,-0.32433 -0.0956,-0.64708 -0.096,-0.97298 -10e-4,-1.08076 0.22893,-2.77495 0.37713,-3.75991 0.56974,-3.78651 1.39171,-7.5316 1.88575,-11.33061 1.53538,-8.76253 3.09002,-17.577187 5.67449,-26.105353 0.66023,-2.178619 1.46573,-4.310561 2.20901,-6.462266 0.60802,-1.760175 1.2299,-3.515532 1.84486,-5.273298 1.91637,-4.786471 3.8179,-9.626158 6.372,-14.117059 z" />
  <path
     style="fill:#fcfadb;fill-opacity:1;stroke:#fcfadb;stroke-opacity:1"
     id="path10"
     d="m 205.06364,89.03425 c 0.67609,8.678377 0.69089,17.38814 0.77272,26.08681 -0.0498,15.44646 -1.07519,30.91356 -3.37427,46.19437 -0.47598,3.1636 -1.10207,6.30278 -1.6531,9.45417 0,0 5.89221,3.08122 5.89221,3.08122 v 0 c 0.14147,-3.36578 0.21338,-6.7352 0.42441,-10.09734 0.94809,-15.10514 2.95441,-30.14157 5.6324,-45.03149 1.00075,-5.29241 1.62441,-8.93578 2.80059,-14.03526 0.5147,-2.23155 1.11617,-4.54477 1.86142,-6.72634 0.35467,-1.038253 0.43302,-1.144351 0.83588,-1.927565 z" />
</svg>
